<svg width="39" height="39" viewBox="0 0 39 39" fill="none" xmlns="http://www.w3.org/2000/svg">
<path d="M19.5 0.774658C16.9392 0.774658 14.4035 1.2769 12.0377 2.2527C9.67182 3.2285 7.52216 4.65875 5.71142 6.4618C2.05446 10.1032 0 15.042 0 20.1918C0 28.7741 5.5965 36.0556 13.338 38.638C14.313 38.7934 14.625 38.1914 14.625 37.6672V34.3857C9.2235 35.5507 8.073 31.7838 8.073 31.7838C7.176 29.5314 5.9085 28.9295 5.9085 28.9295C4.134 27.7256 6.045 27.7644 6.045 27.7644C7.995 27.9004 9.0285 29.7644 9.0285 29.7644C10.725 32.7158 13.5915 31.842 14.703 31.376C14.8785 30.1139 15.3855 29.2596 15.9315 28.7741C11.6025 28.2887 7.059 26.6188 7.059 19.2209C7.059 17.0656 7.8 15.3375 9.0675 13.9589C8.8725 13.4734 8.19 11.4541 9.2625 8.83276C9.2625 8.83276 10.9005 8.3085 14.625 10.8133C16.1655 10.3861 17.8425 10.1725 19.5 10.1725C21.1575 10.1725 22.8345 10.3861 24.375 10.8133C28.0995 8.3085 29.7375 8.83276 29.7375 8.83276C30.81 11.4541 30.1275 13.4734 29.9325 13.9589C31.2 15.3375 31.941 17.0656 31.941 19.2209C31.941 26.6383 27.378 28.2693 23.0295 28.7547C23.7315 29.3566 24.375 30.5411 24.375 32.3469V37.6672C24.375 38.1914 24.687 38.8128 25.6815 38.638C33.423 36.0361 39 28.7741 39 20.1918C39 17.6419 38.4956 15.117 37.5157 12.7612C36.5357 10.4054 35.0993 8.26484 33.2886 6.4618C31.4778 4.65875 29.3282 3.2285 26.9623 2.2527C24.5965 1.2769 22.0608 0.774658 19.5 0.774658Z" fill="white"/>
</svg>
