<svg width="40" height="40" viewBox="0 0 40 40" fill="none" xmlns="http://www.w3.org/2000/svg">
<rect width="40" height="40" rx="15" fill="#77E41B"/>
<path d="M18.6391 4H22.2538V4.87139H24.3804L24.4199 6.47543L25.3329 6.51564V7.21745H26.5231L26.5726 9.07352L28.4121 9.0333V10.8297L29.2823 10.8894V13.0638L30.2194 13.1154V15.2611H31.9598L32 21.2938H31.0896V24.3102H31.8929L31.9424 27.9968H30.6773L30.6378 29.3374H29.8178V30.4099H28.3599L28.4101 32.2197H27.5058L27.4864 33.1581H25.3242L25.3437 34.0295H24.3958L24.4058 35.035H23.037L23.0075 35.9064H17.9028V35.102L16.564 35.1121V34.1442L15.56 34.0744V33.1581L13.4179 33.1481V32.2197H12.5477V30.3429L11.142 30.363V29.3347L10.2718 29.3649V28.0317L9 27.9928V24.3303L9.93714 24.3504V21.2971L9 21.277V15.2698L10.8053 15.3201L10.7558 13.0746L11.6923 13.0497L11.6126 10.8545L12.4995 10.8847L12.5491 9.0943H14.4521L14.4126 7.28448L15.655 7.27443L15.6055 6.59876L16.6497 6.5391L16.6102 4.92904L18.6391 4.97864V4Z" fill="black"/>
<path d="M17.3797 15.2719V15.9763H18.7532L22.3371 15.9804H23.6196V15.3282L22.4255 15.3121L18.695 15.2799L17.3797 15.2719Z" fill="#433B57"/>
<path d="M12.4767 15.1967V14.5183H13.5791V13.8493H14.5143L14.4252 13.1576H16.6744V13.8266L19.5922 13.8715V14.5853L21.6412 14.5625V13.8715L24.5041 13.7723L24.4794 13.1576H26.7412V13.8266L27.6322 13.8715V14.5183L28.5231 14.4734V15.2087L22.3949 15.2704L22.3581 15.9333L18.7782 15.9802L18.716 15.2328L12.4767 15.1967Z" fill="#FFFFD8"/>
<path d="M15.1553 16.8113H15.9251V17.5278H17.3428V18.3932H15.1553V16.8113Z" fill="#FFFFD7"/>
<path d="M25.8435 16.8113H25.0737V17.5278H23.656V18.3932H25.8435V16.8113Z" fill="#FFFFDA"/>
<path d="M12.5381 16.8113V19.3115H13.3929V20.0421H17.9079V19.2773L13.3862 19.276L13.3903 16.8113H12.5381Z" fill="#FFFFD7"/>
<path d="M28.4612 16.8113V19.3115H27.6064V20.0421H23.0908V19.2773L27.6124 19.276L27.6091 16.8113H28.4612Z" fill="#FFFFD7"/>
<path d="M13.4422 17.4692V19.2281H15.2228V18.3969L14.4282 18.409V17.4692H13.4422Z" fill="#433A50"/>
<path d="M27.6356 17.4692V19.2281H25.8551V18.3969L26.6489 18.409V17.4692H27.6356Z" fill="#433A50"/>
<path d="M18.6804 17.4692H17.928V18.3775H18.6804V17.4692Z" fill="#433A50"/>
<path d="M20.958 17.4692H20.061V18.3775H20.958V17.4692Z" fill="#433A50"/>
<path d="M23.0707 17.4692H22.3082V18.3775H23.0707V17.4692Z" fill="#433A50"/>
<path d="M20.0614 18.4275H19.4362V20.4665H20.0614V18.4275Z" fill="#433A50"/>
<path d="M21.6054 18.4275H20.9896V20.4665H21.6054V18.4275Z" fill="#433A50"/>
<path d="M27.0685 20.9007L24.4585 20.9114V21.7775H23.68V20.9061H22.9558V20.52H20.9724V18.4266H20.1062V20.52L18.0539 20.5327V20.9114H17.3243V21.7775H16.6328V20.8954H13.9305V21.4799H14.3033V21.7882H16.5732V23.4767H17.3517V24.2777H15.9306V24.9869H15.1635V27.6386H15.8175V27.9959H16.5846V27.1895H24.4311V27.9959H25.2203V27.6279H25.8796V25.0197H25.1339V24.273H23.6908L23.7122 23.5102H24.4739L24.5061 21.7788H26.711L26.7057 21.5027L27.0678 21.508V20.9021L27.0685 20.9007ZM22.9812 22.7239L22.2034 22.7414L21.941 23.1442L21.6873 23.1617V23.5464H19.3886L19.3799 23.2106L18.8116 22.7494H17.3611V21.988H18.1128V21.3579H19.3625V22.0054H20.0614L20.1136 23.4935H20.9965L20.953 21.988L21.6786 22.0054V21.323H22.8935V21.9531L23.6452 21.9792L23.68 22.7146L22.9812 22.7233V22.7239Z" fill="#FFFFD7"/>
<path d="M18.0787 22.7404V23.4798H18.7039V24.2908H22.3018V23.516H22.9987V22.7109L22.2034 22.7418L21.941 23.1446L21.6873 23.162V23.5006L19.3954 23.4878L19.3806 23.2117L18.8987 22.7404H18.0787Z" fill="#433A50"/>
<path d="M13.9726 21.4935V20.9258H13.0421V21.7509H13.6265V22.6377H15.0536V23.4897H15.9573V24.3276H17.3663V23.552H16.5952V21.8126H14.3447V21.5291L13.9726 21.4935Z" fill="#433A50"/>
<path d="M27.092 21.5085H26.7319V21.8141H24.4855V23.508H23.6902V24.2768H25.114V23.4617H26.0197V22.5729H27.4254V21.7585H28.0078V20.9441L27.0833 20.9266L27.092 21.5085Z" fill="#433A50"/>
<path d="M15.1568 25.8886L14.3689 25.8799L14.381 28.6771H15.1762V30.9139H16.5638V31.625H17.3925V32.4555H20.1337V30.9139H20.9115V32.4555H23.6359V31.676H24.4137V30.9139H25.7846V28.6945H26.63V25.9154H25.8522V27.6776H25.1922V28.0282H24.4498V27.2225H23.6084V28.0443L24.3916 28.0336V28.8983H23.658H17.2841H16.5317V28.0141H17.2841V27.2031H16.4815L16.4956 28.0094H15.8442V27.6615H15.1421L15.1568 25.8886Z" fill="#433A50"/>
<path d="M31.1137 16.1265H30.2489V18.3485H31.1137V16.1265Z" fill="#F2F2D5"/>
<path d="M10.7219 16.1265H9.85706V18.3485H10.7219V16.1265Z" fill="#F2F2D5"/>
<path d="M31.1137 16.1265H30.2489V18.3485H31.1137V16.1265Z" fill="#F2F2D5"/>
<path d="M9.89894 18.4266H10.7256L10.7571 20.467H9.89894V18.4266Z" fill="#413C4F"/>
<path d="M30.2557 18.4266H31.0824L31.1138 20.467H30.2557V18.4266Z" fill="#413C4F"/>
<path d="M10.7215 18.5475H9.8111V18.7814H10.7215V18.5475Z" fill="#F2F2D5"/>
<path d="M31.1134 18.5333H30.2024V18.7512H31.1134V18.5333Z" fill="#F2F2D5"/>
<path d="M23.6076 28.014H17.2839V28.8982H23.6076V28.014Z" fill="#FFFFD7"/>
</svg>
