<svg width="26" height="20" viewBox="0 0 26 20" fill="none" xmlns="http://www.w3.org/2000/svg">
<path d="M22.004 1.75796C20.3675 1.00552 18.5956 0.459394 16.7499 0.143855C16.7338 0.143344 16.7177 0.146339 16.7028 0.15263C16.6879 0.15892 16.6746 0.168353 16.6638 0.180263C16.4423 0.580756 16.1839 1.10261 16.0117 1.5031C14.054 1.21183 12.0631 1.21183 10.1054 1.5031C9.93314 1.09047 9.67474 0.580756 9.44095 0.180263C9.42865 0.155991 9.39174 0.143855 9.35482 0.143855C7.50912 0.459394 5.74955 1.00552 4.10072 1.75796C4.08841 1.75796 4.07611 1.7701 4.06381 1.78223C0.716931 6.72164 -0.205921 11.5275 0.249352 16.2849C0.249352 16.3092 0.261657 16.3335 0.286266 16.3456C2.50111 17.9476 4.62982 18.9184 6.73392 19.5617C6.77084 19.5738 6.80775 19.5617 6.82006 19.5374C7.31224 18.8699 7.75521 18.166 8.13666 17.4257C8.16127 17.3772 8.13666 17.3286 8.08744 17.3165C7.38607 17.0495 6.72162 16.7339 6.06947 16.3699C6.02025 16.3456 6.02025 16.2728 6.05716 16.2364C6.19252 16.1393 6.32787 16.03 6.46322 15.933C6.48783 15.9087 6.52474 15.9087 6.54935 15.9208C10.7822 17.8262 15.3472 17.8262 19.5308 15.9208C19.5554 15.9087 19.5923 15.9087 19.6169 15.933C19.7523 16.0422 19.8876 16.1393 20.023 16.2485C20.0722 16.2849 20.0722 16.3577 20.0107 16.382C19.3708 16.7582 18.6941 17.0616 17.9927 17.3286C17.9435 17.3408 17.9312 17.4014 17.9435 17.4378C18.3372 18.1781 18.7802 18.882 19.2601 19.5495C19.297 19.5617 19.3339 19.5738 19.3708 19.5617C21.4872 18.9184 23.616 17.9476 25.8308 16.3456C25.8554 16.3335 25.8677 16.3092 25.8677 16.2849C26.4091 10.7872 24.9695 6.01774 22.0533 1.78223C22.041 1.7701 22.0286 1.75796 22.004 1.75796ZM8.7765 13.3844C7.50912 13.3844 6.45091 12.2314 6.45091 10.8115C6.45091 9.39159 7.48451 8.23865 8.7765 8.23865C10.0808 8.23865 11.1144 9.40372 11.1021 10.8115C11.1021 12.2314 10.0685 13.3844 8.7765 13.3844ZM17.3529 13.3844C16.0855 13.3844 15.0273 12.2314 15.0273 10.8115C15.0273 9.39159 16.0609 8.23865 17.3529 8.23865C18.6572 8.23865 19.6908 9.40372 19.6785 10.8115C19.6785 12.2314 18.6572 13.3844 17.3529 13.3844Z" fill="white"/>
</svg>
