<svg width="30" height="21" viewBox="0 0 30 21" fill="none" xmlns="http://www.w3.org/2000/svg">
<path d="M29.0625 8.43635H25.7906L20.2242 0.77112C20.0555 0.539524 19.836 0.349664 19.5825 0.216122C19.329 0.0825792 19.0483 0.00890554 18.7619 0.000758292C18.4755 -0.00738895 18.1911 0.0502071 17.9304 0.169123C17.6697 0.288039 17.4398 0.465112 17.2582 0.686745L15.7523 2.43284L15.7289 2.45979C15.6417 2.56941 15.5308 2.65793 15.4046 2.71877C15.2784 2.77962 15.1401 2.81122 15 2.81122C14.8599 2.81122 14.7216 2.77962 14.5954 2.71877C14.4692 2.65793 14.3583 2.56941 14.2711 2.45979L14.2477 2.43284L12.7418 0.686745C12.5602 0.465112 12.3303 0.288039 12.0696 0.169123C11.8089 0.0502071 11.5245 -0.00738895 11.2381 0.000758292C10.9517 0.00890554 10.671 0.0825792 10.4175 0.216122C10.164 0.349664 9.94446 0.539524 9.77578 0.77112L4.20937 8.43635H0.9375C0.68886 8.43635 0.450403 8.53513 0.274587 8.71094C0.0987721 8.88676 0 9.12521 0 9.37385C0 9.62249 0.0987721 9.86095 0.274587 10.0368C0.450403 10.2126 0.68886 10.3114 0.9375 10.3114H29.0625C29.3111 10.3114 29.5496 10.2126 29.7254 10.0368C29.9012 9.86095 30 9.62249 30 9.37385C30 9.12521 29.9012 8.88676 29.7254 8.71094C29.5496 8.53513 29.3111 8.43635 29.0625 8.43635ZM11.2898 1.87385L11.3121 1.90081L12.818 3.64573C13.0817 3.97002 13.4144 4.23144 13.7918 4.411C14.1693 4.59055 14.582 4.68372 15 4.68372C15.418 4.68372 15.8307 4.59055 16.2082 4.411C16.5856 4.23144 16.9183 3.97002 17.182 3.64573L18.6879 1.90081C18.6949 1.89143 18.6996 1.88323 18.7078 1.87385L23.4727 8.43635H6.52617L11.2898 1.87385ZM21.0938 12.1864C20.0562 12.1866 19.0551 12.5691 18.2818 13.2609C17.5085 13.9527 17.0172 14.9052 16.902 15.9364H13.098C12.9825 14.9062 12.4917 13.9546 11.7192 13.2632C10.9468 12.5718 9.94685 12.189 8.91019 12.1879C7.87352 12.1867 6.87274 12.5673 6.0988 13.257C5.32486 13.9467 4.83196 14.8973 4.71416 15.9272C4.59636 16.9572 4.86191 17.9944 5.46012 18.8411C6.05834 19.6877 6.94735 20.2845 7.95749 20.5174C8.96764 20.7504 10.0282 20.6033 10.9368 20.1042C11.8454 19.6051 12.5384 18.7889 12.8836 17.8114H17.1164C17.3742 18.5406 17.8275 19.1849 18.4268 19.6738C19.0261 20.1628 19.7482 20.4776 20.5143 20.5839C21.2804 20.6901 22.061 20.5837 22.7707 20.2763C23.4804 19.9689 24.092 19.4723 24.5385 18.8407C24.9851 18.2092 25.2494 17.4671 25.3026 16.6955C25.3559 15.9239 25.196 15.1525 24.8404 14.4657C24.4848 13.7788 23.9473 13.2029 23.2865 12.8009C22.6257 12.3989 21.8672 12.1863 21.0938 12.1864ZM8.90625 18.7489C8.4427 18.7489 7.98956 18.6114 7.60413 18.3539C7.2187 18.0963 6.9183 17.7303 6.74091 17.302C6.56351 16.8738 6.5171 16.4025 6.60753 15.9479C6.69797 15.4932 6.92119 15.0756 7.24897 14.7478C7.57675 14.42 7.99436 14.1968 8.44901 14.1064C8.90365 14.016 9.3749 14.0624 9.80316 14.2398C10.2314 14.4172 10.5975 14.7176 10.855 15.103C11.1125 15.4884 11.25 15.9416 11.25 16.4051C11.25 16.7129 11.1894 17.0177 11.0716 17.302C10.9538 17.5864 10.7812 17.8447 10.5635 18.0624C10.3459 18.28 10.0875 18.4527 9.80316 18.5704C9.51881 18.6882 9.21404 18.7489 8.90625 18.7489ZM21.0938 18.7489C20.6302 18.7489 20.1771 18.6114 19.7916 18.3539C19.4062 18.0963 19.1058 17.7303 18.9284 17.302C18.751 16.8738 18.7046 16.4025 18.795 15.9479C18.8855 15.4932 19.1087 15.0756 19.4365 14.7478C19.7642 14.42 20.1819 14.1968 20.6365 14.1064C21.0912 14.016 21.5624 14.0624 21.9907 14.2398C22.4189 14.4172 22.785 14.7176 23.0425 15.103C23.3 15.4884 23.4375 15.9416 23.4375 16.4051C23.4375 17.0267 23.1906 17.6228 22.751 18.0624C22.3115 18.5019 21.7154 18.7489 21.0938 18.7489Z" fill="white"/>
</svg>
