<svg width="11" height="19" viewBox="0 0 11 19" fill="none" xmlns="http://www.w3.org/2000/svg">
<path d="M4.05 13C4.05 11.65 4.171 10.6793 4.413 10.088C4.655 9.49667 5.16733 8.85067 5.95 8.15C6.63333 7.55 7.15433 7.02933 7.513 6.588C7.87167 6.14667 8.05067 5.64233 8.05 5.075C8.05 4.39167 7.821 3.825 7.363 3.375C6.905 2.925 6.26733 2.7 5.45 2.7C4.6 2.7 3.95433 2.95833 3.513 3.475C3.07167 3.99167 2.759 4.51667 2.575 5.05L0 3.95C0.35 2.88333 0.991667 1.95833 1.925 1.175C2.85833 0.391667 4.03333 0 5.45 0C7.2 0 8.546 0.487666 9.488 1.463C10.43 2.43833 10.9007 3.609 10.9 4.975C10.9 5.80833 10.721 6.521 10.363 7.113C10.005 7.705 9.44233 8.37567 8.675 9.125C7.85833 9.90833 7.36267 10.5043 7.188 10.913C7.01333 11.3217 6.92567 12.0173 6.925 13H4.05ZM5.45 19C4.9 19 4.42933 18.8043 4.038 18.413C3.64667 18.0217 3.45067 17.5507 3.45 17C3.45 16.45 3.646 15.9793 4.038 15.588C4.43 15.1967 4.90067 15.0007 5.45 15C6 15 6.471 15.196 6.863 15.588C7.255 15.98 7.45067 16.4507 7.45 17C7.45 17.55 7.25433 18.021 6.863 18.413C6.47167 18.805 6.00067 19.0007 5.45 19Z" fill="white"/>
</svg>
