<svg width="62" height="28" viewBox="0 0 62 28" fill="none" xmlns="http://www.w3.org/2000/svg">
<rect x="1.66376" y="1.44135" width="59" height="25" rx="12.5" fill="#321A20" stroke="#6A4149" stroke-width="2"/>
<path d="M18.4838 18.2743C17.2388 18.2743 16.3088 17.6443 15.9338 16.7293H15.8138L15.7238 18.1243H13.6088V7.18933H15.8138V11.4793H15.9338C16.3088 10.5493 17.2388 9.93433 18.4838 9.93433C20.4038 9.93433 21.6938 11.3293 21.6938 14.1043C21.6938 16.8643 20.4038 18.2743 18.4838 18.2743ZM17.6438 16.4893C18.7238 16.4893 19.4438 15.7393 19.4438 14.1043C19.4438 12.4693 18.7238 11.7193 17.6438 11.7193C16.4138 11.7193 15.8288 12.6943 15.8288 13.7143V14.4943C15.8288 15.5143 16.4138 16.4893 17.6438 16.4893ZM26.0409 18.2593C24.1809 18.2593 23.1759 17.1493 23.1759 15.0943V10.0843H25.3809V14.5093C25.3809 15.7843 25.8159 16.4743 26.9109 16.4743C28.0209 16.4743 28.6659 15.5893 28.6659 14.5243V10.0843H30.8709V18.1243H28.7559L28.6659 16.6543H28.5609C28.1709 17.7043 27.1959 18.2593 26.0409 18.2593ZM36.107 20.7793C33.977 20.7793 32.702 19.8193 32.582 18.3343H34.697C34.802 18.8743 35.342 19.2193 36.152 19.2193C37.442 19.2193 37.967 18.6793 37.967 17.5693V16.1893H37.847C37.487 17.0593 36.572 17.6443 35.417 17.6443C33.497 17.6443 32.252 16.3243 32.252 13.7893C32.252 11.2543 33.527 9.93433 35.432 9.93433C36.587 9.93433 37.487 10.5043 37.847 11.3743H37.967L38.027 10.0843H40.172V17.1643C40.172 19.8493 38.537 20.7793 36.107 20.7793ZM36.227 15.9493C37.352 15.9493 37.922 15.1243 37.967 14.2543L37.952 13.2943C37.907 12.4543 37.352 11.6293 36.242 11.6293C35.177 11.6293 34.502 12.3343 34.502 13.7893C34.502 15.2443 35.192 15.9493 36.227 15.9493ZM45.1702 18.2743C42.9802 18.2743 41.6302 17.1943 41.6452 15.5743H43.8052C43.8202 16.3693 44.3902 16.7143 45.2302 16.7143C46.0402 16.7143 46.4602 16.3993 46.4602 15.8743C46.4602 15.2443 46.0402 15.1093 44.9152 14.9443C42.8302 14.6293 41.8402 14.0593 41.8402 12.4993C41.8402 10.9543 43.2052 9.93433 45.2452 9.93433C47.2102 9.93433 48.5002 10.9393 48.5452 12.4843H46.3702C46.3702 11.7943 45.9052 11.4793 45.1852 11.4793C44.4802 11.4793 44.0452 11.7793 44.0452 12.3043C44.0452 12.8893 44.5402 13.0693 45.8002 13.2343C47.7802 13.4893 48.7102 14.1043 48.7102 15.6793C48.7102 17.3443 47.3002 18.2743 45.1702 18.2743Z" fill="#EA9DA5"/>
</svg>
