<svg width="144" height="37" viewBox="0 0 144 37" fill="none" xmlns="http://www.w3.org/2000/svg">
<rect x="1.63843" y="1.97876" width="140.467" height="33.9435" rx="16.9718" fill="#273A3E" stroke="#4C7073" stroke-width="2"/>
<path d="M27.6456 23.2581C25.4746 23.2581 24.2266 21.8411 24.2266 19.6961C24.2266 17.4471 25.5136 16.0301 27.5676 16.0301C29.9336 16.0301 31.0646 17.7331 30.8436 20.0601H26.0986C26.0986 21.2171 26.7096 21.8151 27.6456 21.8151C28.3606 21.8151 28.8676 21.4641 29.0106 20.9181H30.8046C30.6356 22.3481 29.3616 23.2581 27.6456 23.2581ZM27.5676 17.4601C26.7356 17.4601 26.1896 17.9801 26.1116 18.8771H28.9716C28.9326 17.9281 28.3736 17.4601 27.5676 17.4601ZM32.0947 23.1281V16.1601H33.9277L34.0057 17.4211H34.0837C34.4607 16.4981 35.3187 16.0301 36.3067 16.0301C37.6977 16.0301 38.7637 16.8231 38.7637 18.9161V23.1281H36.8527V19.3321C36.8527 18.1621 36.4627 17.5901 35.5397 17.5901C34.5517 17.5901 34.0057 18.3701 34.0057 19.2541V23.1281H32.0947ZM40.334 23.1281V13.6511H42.245V17.4211H42.323C42.7 16.4981 43.558 16.0301 44.546 16.0301C45.937 16.0301 47.003 16.8231 47.003 18.9161V23.1281H45.092V19.3321C45.092 18.1621 44.702 17.5901 43.779 17.5901C42.791 17.5901 42.245 18.3701 42.245 19.2541V23.1281H40.334ZM50.9392 23.2451C49.2752 23.2451 48.1572 22.0361 48.1572 19.6441C48.1572 17.2391 49.2752 16.0301 50.9392 16.0301C52.0182 16.0301 52.8242 16.5631 53.1492 17.3691H53.2532L53.3312 16.1601H55.1642V23.1281H53.2532V21.9061H53.1492C52.8242 22.7121 52.0182 23.2451 50.9392 23.2451ZM51.6672 21.6981C52.7332 21.6981 53.2272 20.8661 53.2272 19.9691V19.3061C53.2272 18.4091 52.7332 17.5771 51.6672 17.5771C50.7312 17.5771 50.1072 18.2271 50.1072 19.6441C50.1072 21.0481 50.7312 21.6981 51.6672 21.6981ZM56.7998 23.1281V16.1601H58.6328L58.7108 17.4211H58.7888C59.1658 16.4981 60.0238 16.0301 61.0118 16.0301C62.4028 16.0301 63.4688 16.8231 63.4688 18.9161V23.1281H61.5578V19.3321C61.5578 18.1621 61.1678 17.5901 60.2448 17.5901C59.2568 17.5901 58.7108 18.3701 58.7108 19.2541V23.1281H56.7998ZM68.0811 23.2451C65.9881 23.2451 64.6231 21.8151 64.6231 19.6441C64.6231 17.4601 66.0011 16.0301 68.1461 16.0301C69.9401 16.0301 71.2271 17.1221 71.3051 18.6951H69.4331C69.3161 17.9671 68.7831 17.5901 68.0941 17.5901C67.0801 17.5901 66.5601 18.3961 66.5601 19.6441C66.5601 21.0091 67.1711 21.6851 68.0811 21.6851C68.8871 21.6851 69.3811 21.2301 69.4591 20.5541H71.3181C71.2401 22.1921 69.9141 23.2451 68.0811 23.2451ZM75.4942 23.2581C73.3232 23.2581 72.0752 21.8411 72.0752 19.6961C72.0752 17.4471 73.3622 16.0301 75.4162 16.0301C77.7822 16.0301 78.9132 17.7331 78.6922 20.0601H73.9472C73.9472 21.2171 74.5582 21.8151 75.4942 21.8151C76.2092 21.8151 76.7162 21.4641 76.8592 20.9181H78.6532C78.4842 22.3481 77.2102 23.2581 75.4942 23.2581ZM75.4162 17.4601C74.5842 17.4601 74.0382 17.9801 73.9602 18.8771H76.8202C76.7812 17.9281 76.2222 17.4601 75.4162 17.4601ZM79.9434 23.1281V16.1601H81.7894L81.8544 17.4211H81.9324C82.2834 16.4981 83.1284 16.0301 84.0644 16.0301C85.0394 16.0301 85.8974 16.4461 86.2744 17.5901H86.3784C86.7034 16.5501 87.6264 16.0301 88.6794 16.0301C90.0184 16.0301 91.0584 16.8231 91.0584 18.9161V23.1281H89.1474V19.3321C89.1474 18.1621 88.7834 17.5901 87.9124 17.5901C86.9894 17.5901 86.4564 18.3701 86.4564 19.2541V23.1281H84.5454V19.3321C84.5454 18.1621 84.1684 17.5901 83.3104 17.5901C82.3744 17.5901 81.8544 18.3701 81.8544 19.2541V23.1281H79.9434ZM95.629 23.2581C93.458 23.2581 92.21 21.8411 92.21 19.6961C92.21 17.4471 93.497 16.0301 95.551 16.0301C97.917 16.0301 99.048 17.7331 98.827 20.0601L94.082 20.0601C94.082 21.2171 94.693 21.8151 95.629 21.8151C96.344 21.8151 96.851 21.4641 96.994 20.9181L98.788 20.9181C98.619 22.3481 97.345 23.2581 95.629 23.2581ZM95.551 17.4601C94.719 17.4601 94.173 17.9801 94.095 18.8771H96.955C96.916 17.9281 96.357 17.4601 95.551 17.4601ZM100.078 23.1281V16.1601H101.911L101.989 17.4211H102.067C102.444 16.4981 103.302 16.0301 104.29 16.0301C105.681 16.0301 106.747 16.8231 106.747 18.9161V23.1281H104.836V19.3321C104.836 18.1621 104.446 17.5901 103.523 17.5901C102.535 17.5901 101.989 18.3701 101.989 19.2541V23.1281H100.078ZM110.441 23.1281C109.024 23.1281 108.66 22.4781 108.66 21.4251V17.6941H107.412V16.1601H108.66V14.2621L110.558 14.0801V16.1601H111.962V17.6941H110.558V21.0611C110.558 21.4771 110.753 21.5811 111.117 21.5811H111.962V23.1281H110.441ZM115.781 23.2581C113.883 23.2581 112.713 22.3221 112.726 20.9181H114.598C114.611 21.6071 115.105 21.9061 115.833 21.9061C116.535 21.9061 116.899 21.6331 116.899 21.1781C116.899 20.6321 116.535 20.5151 115.56 20.3721C113.753 20.0991 112.895 19.6051 112.895 18.2531C112.895 16.9141 114.078 16.0301 115.846 16.0301C117.549 16.0301 118.667 16.9011 118.706 18.2401H116.821C116.821 17.6421 116.418 17.3691 115.794 17.3691C115.183 17.3691 114.806 17.6291 114.806 18.0841C114.806 18.5911 115.235 18.7471 116.327 18.8901C118.043 19.1111 118.849 19.6441 118.849 21.0091C118.849 22.4521 117.627 23.2581 115.781 23.2581Z" fill="#A0EEEE"/>
</svg>
