<svg width="96" height="38" viewBox="0 0 96 38" fill="none" xmlns="http://www.w3.org/2000/svg">
<rect x="0.7" y="0.7" width="93.8" height="36.4" rx="18.2" fill="#0F2727" stroke="#156057" stroke-width="1.4"/>
<path d="M31.5792 26V13.7528L40.2984 13.7528V15.668H33.7968V19.1624H39.6264V20.9768H33.7968V26H31.5792ZM41.8756 26V17.0624H43.774L43.8748 18.5576H43.942C44.3452 17.4152 45.3196 16.9448 46.4788 16.9448C46.6804 16.9448 46.8484 16.9448 46.9996 16.9448V18.9272C46.8652 18.9272 46.6636 18.9104 46.4452 18.9104C44.8156 18.9104 44.0428 19.7168 43.9756 21.1112V26H41.8756ZM51.872 26.1512C49.1672 26.1512 47.6048 24.3368 47.6048 21.5816C47.6048 18.7088 49.2008 16.8944 51.8048 16.8944C54.728 16.8944 56.1392 19.0112 55.8872 21.968H49.6544C49.6712 23.6816 50.5448 24.5552 51.872 24.5552C52.9304 24.5552 53.6528 24.0176 53.8544 23.2112H55.8368C55.6016 25.0256 54.0056 26.1512 51.872 26.1512ZM51.8048 18.4904C50.5784 18.4904 49.7888 19.2464 49.6712 20.6072H53.8208C53.7704 19.1624 52.964 18.4904 51.8048 18.4904ZM61.4532 26.1512C58.7484 26.1512 57.186 24.3368 57.186 21.5816C57.186 18.7088 58.782 16.8944 61.386 16.8944C64.3092 16.8944 65.7204 19.0112 65.4684 21.968H59.2356C59.2524 23.6816 60.126 24.5552 61.4532 24.5552C62.5116 24.5552 63.234 24.0176 63.4356 23.2112H65.418C65.1828 25.0256 63.5868 26.1512 61.4532 26.1512ZM61.386 18.4904C60.1596 18.4904 59.37 19.2464 59.2524 20.6072H63.402C63.3516 19.1624 62.5452 18.4904 61.386 18.4904Z" fill="#01E6C4"/>
</svg>
