<svg width="96" height="38" viewBox="0 0 96 38" fill="none" xmlns="http://www.w3.org/2000/svg">
<rect x="0.7" y="0.7" width="93.8" height="36.4" rx="18.2" fill="#32233C" stroke="#643E6F" stroke-width="1.4"/>
<path d="M36.0268 26V13.7528L40.9828 13.7528C43.5868 13.7528 45.25 15.164 45.25 17.6504C45.25 20.0024 43.6372 21.5648 40.966 21.548H37.858V26H36.0268ZM40.6972 15.332H37.858V20.0864H40.6972C42.2932 20.1032 43.3852 19.3304 43.3852 17.7008C43.3852 16.0712 42.2764 15.332 40.6972 15.332ZM46.9143 26V17.1128H48.4599L48.5439 18.692H48.6279C49.0143 17.5496 50.0223 16.9952 51.1983 16.9952C51.3999 16.9952 51.5679 17.012 51.7191 17.0288V18.6584C51.5847 18.6416 51.3831 18.6416 51.1815 18.6416C49.6023 18.6416 48.7119 19.4648 48.6279 20.9264V26H46.9143ZM56.7146 26.1512C54.1106 26.1512 52.3634 24.3704 52.3634 21.5816C52.3634 18.8432 54.0266 16.9784 56.7146 16.9784C59.3018 16.9784 61.049 18.7424 61.049 21.5648C61.049 24.2864 59.3858 26.1512 56.7146 26.1512ZM56.7146 24.7064C58.2602 24.7064 59.285 23.5808 59.285 21.5648C59.285 19.5656 58.3106 18.4064 56.7146 18.4064C55.169 18.4064 54.1274 19.532 54.1274 21.5816C54.1274 23.564 55.1354 24.7064 56.7146 24.7064Z" fill="#B46AC0"/>
</svg>
