<svg width="101" height="28" viewBox="0 0 101 28" fill="none" xmlns="http://www.w3.org/2000/svg">
<rect x="1.79034" y="1.48096" width="98" height="25" rx="12.5" fill="#32233C" stroke="#643E6F" stroke-width="2"/>
<path d="M24.1353 20.986V17.071H24.0153C23.6403 18.001 22.7103 18.616 21.4653 18.616C19.5453 18.616 18.2553 17.221 18.2553 14.461C18.2553 11.686 19.5453 10.291 21.4653 10.291C22.7103 10.291 23.6403 10.906 24.0153 11.836H24.1353L24.2253 10.441H26.3403V20.986H24.1353ZM22.3053 16.831C23.5353 16.831 24.1053 15.871 24.1053 14.836V14.071C24.1053 13.036 23.5353 12.076 22.3053 12.076C21.2253 12.076 20.5053 12.826 20.5053 14.461C20.5053 16.081 21.2253 16.831 22.3053 16.831ZM31.1675 18.616C29.3075 18.616 28.3025 17.506 28.3025 15.451V10.441H30.5075V14.866C30.5075 16.141 30.9425 16.831 32.0375 16.831C33.1475 16.831 33.7925 15.946 33.7925 14.881V10.441H35.9975V18.481H33.8825L33.7925 17.011H33.6875C33.2975 18.061 32.3225 18.616 31.1675 18.616ZM41.3236 18.631C38.8186 18.631 37.3786 16.996 37.3786 14.521C37.3786 11.926 38.8636 10.291 41.2336 10.291C43.9636 10.291 45.2686 12.256 45.0136 14.941H39.5386C39.5386 16.276 40.2436 16.966 41.3236 16.966C42.1486 16.966 42.7336 16.561 42.8986 15.931H44.9686C44.7736 17.581 43.3036 18.631 41.3236 18.631ZM41.2336 11.941C40.2736 11.941 39.6436 12.541 39.5536 13.576H42.8536C42.8086 12.481 42.1636 11.941 41.2336 11.941ZM49.6522 18.631C47.4622 18.631 46.1122 17.551 46.1272 15.931H48.2872C48.3022 16.726 48.8722 17.071 49.7122 17.071C50.5222 17.071 50.9422 16.756 50.9422 16.231C50.9422 15.601 50.5222 15.466 49.3972 15.301C47.3122 14.986 46.3222 14.416 46.3222 12.856C46.3222 11.311 47.6872 10.291 49.7272 10.291C51.6922 10.291 52.9822 11.296 53.0272 12.841H50.8522C50.8522 12.151 50.3872 11.836 49.6672 11.836C48.9622 11.836 48.5272 12.136 48.5272 12.661C48.5272 13.246 49.0222 13.426 50.2822 13.591C52.2622 13.846 53.1922 14.461 53.1922 16.036C53.1922 17.701 51.7822 18.631 49.6522 18.631ZM57.4249 18.481C55.7899 18.481 55.3699 17.731 55.3699 16.516V12.211H53.9299V10.441H55.3699V8.25096L57.5599 8.04096V10.441H59.1799V12.211H57.5599V16.096C57.5599 16.576 57.7849 16.696 58.2049 16.696H59.1799V18.481H57.4249ZM60.6914 9.40596V7.54596H62.8964V9.40596H60.6914ZM60.6914 18.481V10.441H62.8964V18.481H60.6914ZM68.498 18.616C66.083 18.616 64.463 17.071 64.463 14.461C64.463 11.971 65.948 10.291 68.498 10.291C70.898 10.291 72.518 11.851 72.518 14.461C72.518 16.951 71.033 18.616 68.498 18.616ZM68.483 16.831C69.563 16.831 70.283 16.066 70.283 14.461C70.283 12.871 69.593 12.091 68.498 12.091C67.403 12.091 66.683 12.856 66.683 14.461C66.683 16.051 67.388 16.831 68.483 16.831ZM74.0725 18.481V10.441H76.1875L76.2775 11.896H76.3675C76.8025 10.831 77.7925 10.291 78.9325 10.291C80.5375 10.291 81.7675 11.206 81.7675 13.621V18.481H79.5625V14.101C79.5625 12.751 79.1125 12.091 78.0475 12.091C76.9075 12.091 76.2775 12.991 76.2775 14.011V18.481H74.0725Z" fill="#B46AC0"/>
</svg>
